<?xml version="1.0" encoding="UTF-8" standalone="no"?>
<!-- Created with Inkscape (http://www.inkscape.org/) -->

<svg
   viewBox="0 0 32.212439 32.212439"
   version="1.1"
   id="svg1"
   xml:space="preserve"
   sodipodi:docname="odelogo.svg"
   inkscape:version="1.4.2 (f4327f4, 2025-05-13)"
   width="32.21244"
   height="32.21244"
   xmlns:inkscape="http://www.inkscape.org/namespaces/inkscape"
   xmlns:sodipodi="http://sodipodi.sourceforge.net/DTD/sodipodi-0.dtd"
   xmlns="http://www.w3.org/2000/svg"
   xmlns:svg="http://www.w3.org/2000/svg"><sodipodi:namedview
     id="namedview1"
     pagecolor="#ffffff"
     bordercolor="#000000"
     borderopacity="0.25"
     inkscape:showpageshadow="2"
     inkscape:pageopacity="0.0"
     inkscape:pagecheckerboard="0"
     inkscape:deskcolor="#d1d1d1"
     inkscape:zoom="13.183925"
     inkscape:cx="46.609792"
     inkscape:cy="23.172159"
     inkscape:window-width="1920"
     inkscape:window-height="1137"
     inkscape:window-x="-8"
     inkscape:window-y="-8"
     inkscape:window-maximized="1"
     inkscape:current-layer="layer1" /><defs
     id="defs1"><clipPath
       clipPathUnits="userSpaceOnUse"
       id="clipPath11"><circle
         style="fill:#ea6819;fill-opacity:1;stroke-width:0.272971"
         id="circle11"
         clip-path="none"
         r="16.10622"
         cy="134.92332"
         cx="39.6357" /></clipPath><clipPath
       clipPathUnits="userSpaceOnUse"
       id="clipPath12"><circle
         style="fill:#ea6819;fill-opacity:1;stroke-width:0.272971"
         id="circle12"
         clip-path="none"
         r="16.10622"
         cy="134.92332"
         cx="39.6357" /></clipPath><clipPath
       clipPathUnits="userSpaceOnUse"
       id="clipPath13"><circle
         style="fill:#ea6819;fill-opacity:1;stroke-width:0.272971"
         id="circle13"
         clip-path="none"
         r="16.10622"
         cy="134.92332"
         cx="39.6357" /></clipPath><clipPath
       clipPathUnits="userSpaceOnUse"
       id="clipPath14"><circle
         style="fill:#ea6819;fill-opacity:1;stroke-width:0.272971"
         id="circle14"
         clip-path="none"
         r="16.10622"
         cy="134.92332"
         cx="39.6357" /></clipPath><clipPath
       clipPathUnits="userSpaceOnUse"
       id="clipPath10"><path
         style="baseline-shift:baseline;display:none;overflow:visible;opacity:1;vector-effect:none;fill:#ffffff;stroke-width:1;stroke-linecap:square;stroke-linejoin:round;enable-background:accumulate;stop-color:#000000;stop-opacity:1"
         d="m 40.69531,117.92969 -0.417967,0.9082 0.455079,0.20899 c 0,0 1.642488,0.74013 3.396482,3.2246 1.374253,1.94658 2.754758,5.00611 3.359376,9.54102 -3.245112,-0.37627 -5.649153,-2.61776 -8.796876,-4.89844 a 0.50005,0.50005 0 0 0 -0.0039,-0.002 c -4.558004,-3.25962 -8.121472,-4.20972 -10.375,-4.27539 l -0.499999,-0.0156 -0.0293,1 0.5,0.0156 c 2.001792,0.0583 5.392361,0.91849 9.824219,4.08789 3.125715,2.26529 5.739348,4.7662 9.464845,5.10937 0.07796,0.75806 0.159021,1.50808 0.189452,2.34766 -6.546699,0.26718 -14.630865,0.31126 -24.544921,-0.62109 l -0.498047,-0.0469 -0.09375,0.9961 0.498046,0.0469 c 9.965982,0.93724 18.086441,0.89299 24.68164,0.62305 0.0236,0.93038 -0.03867,1.78417 -0.123044,2.61718 -1.671327,0.17437 -3.141662,0.69198 -4.503909,1.5 -1.584023,0.93958 -3.104107,2.15057 -4.939452,3.35157 a 0.50005,0.50005 0 0 0 -0.002,0.002 c -4.343734,2.87426 -7.577519,2.68675 -9.748048,2.75 l -0.499999,0.0137 0.0293,1 0.5,-0.0137 c 2.084416,-0.0607 5.714535,0.0991 10.269531,-2.91406 l 0.002,-0.002 c 1.87941,-1.23002 3.399939,-2.43927 4.898437,-3.32812 1.232763,-0.73122 2.487506,-1.16542 3.900391,-1.34375 -1.186219,7.7104 -6.548828,10.9707 -6.548828,10.9707 l -0.425782,0.25977 0.521486,0.85351 0.425782,-0.25976 c 0,0 5.888775,-3.63978 7.070311,-11.94336 1.171446,0.0806 1.969758,0.41982 2.50586,0.89844 0.566341,0.50561 0.8857,1.16725 1.058592,1.85547 0.345788,1.37642 0.06836,2.77734 0.06836,2.77734 l -0.101563,0.48828 0.978516,0.20313 0.101561,-0.48829 c 0,0 0.338412,-1.57238 -0.07617,-3.22265 -0.207293,-0.82514 -0.612015,-1.68867 -1.363283,-2.35938 -0.715799,-0.63904 -1.759437,-1.05935 -3.123046,-1.15039 0.07789,-0.8236 0.148699,-1.65472 0.124999,-2.56445 2.459961,-0.11904 5.537325,-0.16792 7.128907,-0.35156 l 0.498048,-0.0566 -0.115236,-0.99414 -0.496094,0.0586 c -1.560282,0.18003 -4.62327,0.22801 -7.060545,0.3457 -0.02939,-0.80126 -0.111293,-1.51639 -0.183593,-2.24804 1.360856,-0.0976 2.43124,-0.55986 3.148436,-1.28907 0.782594,-0.7957 1.193781,-1.81813 1.408203,-2.80664 0.428845,-1.97702 0.08789,-3.89453 0.08789,-3.89453 l -0.08594,-0.49219 -0.984374,0.16993 0.08398,0.49414 c 0,0 0.298392,1.77399 -0.07813,3.50976 -0.188256,0.86789 -0.542029,1.70577 -1.14453,2.31836 -0.552861,0.56212 -1.360513,0.92639 -2.515625,1.00391 -0.610378,-4.79367 -2.058959,-8.09474 -3.548829,-10.20508 -1.874281,-2.65485 -3.798826,-3.55469 -3.79883,-3.55469 z"
         id="path10" /><path
         id="lpe_path-effect10"
         style="baseline-shift:baseline;display:inline;overflow:visible;opacity:1;vector-effect:none;fill:#ffffff;stroke-width:1;stroke-linecap:square;stroke-linejoin:round;enable-background:accumulate;stop-color:#000000;stop-opacity:1"
         class="powerclip"
         d="m 18.529476,113.8171 h 42.212441 v 42.21244 H 18.529476 Z m 22.165834,4.11259 -0.417967,0.9082 0.455079,0.20899 c 0,0 1.642488,0.74013 3.396482,3.2246 1.374253,1.94658 2.754758,5.00611 3.359376,9.54102 -3.245112,-0.37627 -5.649153,-2.61776 -8.796876,-4.89844 a 0.50005,0.50005 0 0 0 -0.0039,-0.002 c -4.558004,-3.25962 -8.121472,-4.20972 -10.375,-4.27539 l -0.499999,-0.0156 -0.0293,1 0.5,0.0156 c 2.001792,0.0583 5.392361,0.91849 9.824219,4.08789 3.125715,2.26529 5.739348,4.7662 9.464845,5.10937 0.07796,0.75806 0.159021,1.50808 0.189452,2.34766 -6.546699,0.26718 -14.630865,0.31126 -24.544921,-0.62109 l -0.498047,-0.0469 -0.09375,0.9961 0.498046,0.0469 c 9.965982,0.93724 18.086441,0.89299 24.68164,0.62305 0.0236,0.93038 -0.03867,1.78417 -0.123044,2.61718 -1.671327,0.17437 -3.141662,0.69198 -4.503909,1.5 -1.584023,0.93958 -3.104107,2.15057 -4.939452,3.35157 a 0.50005,0.50005 0 0 0 -0.002,0.002 c -4.343734,2.87426 -7.577519,2.68675 -9.748048,2.75 l -0.499999,0.0137 0.0293,1 0.5,-0.0137 c 2.084416,-0.0607 5.714535,0.0991 10.269531,-2.91406 l 0.002,-0.002 c 1.87941,-1.23002 3.399939,-2.43927 4.898437,-3.32812 1.232763,-0.73122 2.487506,-1.16542 3.900391,-1.34375 -1.186219,7.7104 -6.548828,10.9707 -6.548828,10.9707 l -0.425782,0.25977 0.521486,0.85351 0.425782,-0.25976 c 0,0 5.888775,-3.63978 7.070311,-11.94336 1.171446,0.0806 1.969758,0.41982 2.50586,0.89844 0.566341,0.50561 0.8857,1.16725 1.058592,1.85547 0.345788,1.37642 0.06836,2.77734 0.06836,2.77734 l -0.101563,0.48828 0.978516,0.20313 0.101561,-0.48829 c 0,0 0.338412,-1.57238 -0.07617,-3.22265 -0.207293,-0.82514 -0.612015,-1.68867 -1.363283,-2.35938 -0.715799,-0.63904 -1.759437,-1.05935 -3.123046,-1.15039 0.07789,-0.8236 0.148699,-1.65472 0.124999,-2.56445 2.459961,-0.11904 5.537325,-0.16792 7.128907,-0.35156 l 0.498048,-0.0566 -0.115236,-0.99414 -0.496094,0.0586 c -1.560282,0.18003 -4.62327,0.22801 -7.060545,0.3457 -0.02939,-0.80126 -0.111293,-1.51639 -0.183593,-2.24804 1.360856,-0.0976 2.43124,-0.55986 3.148436,-1.28907 0.782594,-0.7957 1.193781,-1.81813 1.408203,-2.80664 0.428845,-1.97702 0.08789,-3.89453 0.08789,-3.89453 l -0.08594,-0.49219 -0.984374,0.16993 0.08398,0.49414 c 0,0 0.298392,1.77399 -0.07813,3.50976 -0.188256,0.86789 -0.542029,1.70577 -1.14453,2.31836 -0.552861,0.56212 -1.360513,0.92639 -2.515625,1.00391 -0.610378,-4.79367 -2.058959,-8.09474 -3.548829,-10.20508 -1.874281,-2.65485 -3.798826,-3.55469 -3.79883,-3.55469 z" /></clipPath></defs><g
     id="layer1"
     transform="translate(-14.222083,-10.77065)"><g
       id="g1"><path
         style="fill:#ff7f50;fill-opacity:1;stroke-width:0.27297"
         id="path1"
         clip-path="url(#clipPath10)"
         transform="rotate(140,54.644846,79.206288)"
         d="m 55.741917,134.92332 a 16.10622,16.10622 0 0 1 -16.106221,16.10622 16.10622,16.10622 0 0 1 -16.10622,-16.10622 16.10622,16.10622 0 0 1 16.10622,-16.10622 16.10622,16.10622 0 0 1 16.106221,16.10622 z" /></g></g></svg>
